<svg width="57" height="58" viewBox="0 0 57 58" fill="none" xmlns="http://www.w3.org/2000/svg">
<path d="M28.4998 57.273C44.2401 57.273 57 44.4522 57 28.6369C57 12.8212 44.2401 0 28.4998 0C12.7599 0 0 12.8212 0 28.6369C0 44.4522 12.7599 57.273 28.4998 57.273Z" fill="#223A6A"/>
<path style="mix-blend-mode:overlay" d="M28.4998 57.273C44.2401 57.273 57 44.4522 57 28.6369C57 12.8212 44.2401 0 28.4998 0C12.7599 0 0 12.8212 0 28.6369C0 44.4522 12.7599 57.273 28.4998 57.273Z" fill="url(#paint0_radial_652_95)" fill-opacity="0.49"/>
<path d="M41.415 38.7802L41.341 38.704L39.4816 36.944L39.556 36.8635C40.8019 35.4656 41.5492 33.7987 41.678 32.0352L41.6943 31.7401L41.6982 31.4843C41.6982 29.4364 40.8928 27.571 39.5339 26.0625C39.2796 31.974 33.6542 36.6504 26.514 36.7874L26.5046 36.7877H26.4945L26.216 36.7906H26.2066H26.1968H20.9994C23.0146 39.1025 26.3141 40.6045 30.0386 40.6757L30.3175 40.6785H40.5208C41.5423 40.6785 42.0637 39.5077 41.415 38.7802Z" fill="white"/>
<path d="M26.2175 16.4385C19.9697 16.4385 14.8365 20.4577 14.8365 25.6327L14.8408 25.8885L14.8567 26.1836C14.9859 27.9471 15.7335 29.6144 16.9795 31.0119L17.0538 31.0924L15.1944 32.852L15.1205 32.9285C14.4717 33.6558 14.9924 34.8269 16.0139 34.8269H26.2175L26.4965 34.824C32.6176 34.7067 37.5989 30.7301 37.5989 25.6327C37.5989 20.4577 32.4654 16.4385 26.2175 16.4385ZM27.9012 28.6918L27.7875 28.6972H20.7231C20.0729 28.6972 19.5461 28.1832 19.5461 27.5479C19.5461 26.9505 20.013 26.4597 20.6102 26.4039L20.7231 26.3986H27.7875C28.4377 26.3986 28.9649 26.9137 28.9649 27.5479C28.9649 28.1452 28.498 28.6364 27.9012 28.6918ZM31.0408 25.6273L30.9275 25.6327H20.7231C20.0729 25.6327 19.5461 25.1179 19.5461 24.4834C19.5461 23.8856 20.013 23.3949 20.6102 23.3394L20.7231 23.334H30.9275C31.5773 23.334 32.1045 23.8484 32.1045 24.4834C32.1045 25.0807 31.6376 25.5715 31.0408 25.6273Z" fill="white"/>
<defs>
<radialGradient id="paint0_radial_652_95" cx="0" cy="0" r="1" gradientUnits="userSpaceOnUse" gradientTransform="translate(57.0682 57.3801) scale(54.3357 54.3357)">
<stop offset="0.33" stop-color="#CB5507"/>
<stop offset="0.67" stop-color="#FF6B0B"/>
<stop offset="1" stop-color="#F46709"/>
</radialGradient>
</defs>
</svg>
