<svg width="20" height="20" viewBox="0 0 20 20" fill="none" xmlns="http://www.w3.org/2000/svg">
<path d="M16.6716 15.5285L13.9346 12.7995C14.8177 11.6745 15.2968 10.2852 15.295 8.85501C15.295 7.5813 14.9173 6.33619 14.2097 5.27714C13.5021 4.21809 12.4963 3.39266 11.3195 2.90523C10.1428 2.4178 8.8479 2.29027 7.59866 2.53875C6.34942 2.78724 5.20192 3.40059 4.30127 4.30124C3.40062 5.20189 2.78727 6.34939 2.53878 7.59863C2.2903 8.84787 2.41783 10.1427 2.90526 11.3195C3.39269 12.4962 4.21812 13.502 5.27717 14.2097C6.33622 14.9173 7.58133 15.295 8.85504 15.295C10.2852 15.2968 11.6745 14.8176 12.7995 13.9346L15.5285 16.6716C15.6033 16.747 15.6924 16.8069 15.7905 16.8478C15.8886 16.8886 15.9938 16.9097 16.1 16.9097C16.2063 16.9097 16.3115 16.8886 16.4096 16.8478C16.5077 16.8069 16.5968 16.747 16.6716 16.6716C16.747 16.5967 16.8069 16.5077 16.8478 16.4096C16.8887 16.3115 16.9097 16.2063 16.9097 16.1C16.9097 15.9937 16.8887 15.8885 16.8478 15.7904C16.8069 15.6923 16.747 15.6033 16.6716 15.5285ZM4.02504 8.85501C4.02504 7.89973 4.30832 6.9659 4.83904 6.17161C5.36977 5.37732 6.12411 4.75824 7.00668 4.39267C7.88925 4.0271 8.8604 3.93145 9.79733 4.11782C10.7343 4.30419 11.5949 4.7642 12.2704 5.43969C12.9459 6.11517 13.4059 6.9758 13.5922 7.91273C13.7786 8.84965 13.683 9.82081 13.3174 10.7034C12.9518 11.5859 12.3327 12.3403 11.5384 12.871C10.7442 13.4017 9.81033 13.685 8.85504 13.685C7.57405 13.685 6.34552 13.1761 5.43972 12.2703C4.53392 11.3645 4.02504 10.136 4.02504 8.85501Z" fill="white"/>
</svg>
